# xmcd
#
# Track frame offsets:
#	225
#	11160
#	23492
#	44166
#	54614
#	68349
#	85949
#	97638
#	112970
#	124968
#	140639
#	151297
#	160512
#	173155
#	185224
#	199955
#	214675
#	224268
#
# Disc length: 3168 seconds
#
# Revision: 1
# Processed by: cddbd v1.5.2PL0 Copyright (c) Steve Scherf et al.
# Submitted via: audiograbber 1.83.01
#
DISCID=f90c5d12
DTITLE=Glenn Campbell - Rhinestone Cowboy
DYEAR=1900
DGENRE=
TTITLE0=Ebb Tide
TTITLE1=Since I Fell For You
TTITLE2=Bridge Over Troubled Water
TTITLE3=What A Wonderfull World
TTITLE4=Make It Easy On Yourself
TTITLE5=You've Lost That Lovin' Feelin'
TTITLE6=It's All In The Game
TTITLE7=Without You
TTITLE8=You Don't Have To Say You Love Me
TTITLE9=Feelings
TTITLE10=Time In A Bottle
TTITLE11=Let It Be Me
TTITLE12=You'll Never Walk Alone
TTITLE13=The Impossible Dream
TTITLE14=And I Love You So
TTITLE15=Only Love Can Break A Heart
TTITLE16=I Beleive
TTITLE17=Rhinestone Cowboy
EXTD=
EXTT0=
EXTT1=
EXTT2=
EXTT3=
EXTT4=
EXTT5=
EXTT6=
EXTT7=
EXTT8=
EXTT9=
EXTT10=
EXTT11=
EXTT12=
EXTT13=
EXTT14=
EXTT15=
EXTT16=
EXTT17=
PLAYORDER=
